<svg width="114" height="86" viewBox="0 0 114 86" fill="none" xmlns="http://www.w3.org/2000/svg">
<path d="M71.521 1.05066L60.8776 12.0766C60.1492 12.8285 60.1512 14.0293 60.8815 14.7795L78.9174 33.3336L0.91659 33.3336C-0.141321 33.3336 -1 34.1997 -1 35.2668L-1 50.7336C-1 51.8007 -0.14132 52.6668 0.91659 52.6668L78.9174 52.6668L60.8815 71.2209C60.153 71.9711 60.1513 73.1698 60.8776 73.9218L71.521 84.9477C71.8813 85.3226 72.3758 85.5336 72.8933 85.5336C73.4108 85.5336 73.9054 85.3208 74.2657 84.9477L113.456 44.3477C113.818 43.9727 114 43.4854 114 43.0001C114 42.513 113.818 42.0277 113.456 41.6507L74.2657 1.05066C73.9054 0.677517 73.4108 0.466817 72.8933 0.466817C72.3758 0.466817 71.8813 0.677518 71.521 1.05066Z" fill="#FCB314"/>
</svg>
