<svg width="35" height="35" viewBox="0 0 35 35" fill="none" xmlns="http://www.w3.org/2000/svg">
<circle cx="18" cy="18" r="16" fill="white"/>
<path d="M20.8496 17.5C20.8496 19.35 19.35 20.8496 17.5 20.8496C15.65 20.8496 14.1504 19.35 14.1504 17.5C14.1504 15.65 15.65 14.1504 17.5 14.1504C19.35 14.1504 20.8496 15.65 20.8496 17.5Z" fill="#454545"/>
<path d="M25.3336 11.5736C25.1725 11.1372 24.9157 10.7423 24.5819 10.4181C24.2577 10.0843 23.863 9.82745 23.4264 9.66644C23.0724 9.52892 22.5404 9.36523 21.5607 9.32063C20.5009 9.2723 20.1831 9.26189 17.5 9.26189C14.8166 9.26189 14.4989 9.27203 13.4393 9.32037C12.4596 9.36523 11.9274 9.52892 11.5736 9.66644C11.137 9.82745 10.742 10.0843 10.4181 10.4181C10.0843 10.7423 9.82746 11.137 9.66618 11.5736C9.52866 11.9276 9.36497 12.4598 9.32037 13.4396C9.27204 14.4991 9.26163 14.8169 9.26163 17.5003C9.26163 20.1834 9.27204 20.5011 9.32037 21.561C9.36497 22.5407 9.52866 23.0726 9.66618 23.4267C9.82746 23.8633 10.0841 24.258 10.4179 24.5821C10.742 24.9159 11.1367 25.1728 11.5733 25.3338C11.9274 25.4716 12.4596 25.6353 13.4393 25.6799C14.4989 25.7282 14.8164 25.7384 17.4997 25.7384C20.1834 25.7384 20.5011 25.7282 21.5604 25.6799C22.5402 25.6353 23.0724 25.4716 23.4264 25.3338C24.3028 24.9958 24.9955 24.3031 25.3336 23.4267C25.4711 23.0726 25.6348 22.5407 25.6796 21.561C25.728 20.5011 25.7381 20.1834 25.7381 17.5003C25.7381 14.8169 25.728 14.4991 25.6796 13.4396C25.635 12.4598 25.4713 11.9276 25.3336 11.5736ZM17.5 22.6601C14.65 22.6601 12.3397 20.35 12.3397 17.5C12.3397 14.65 14.65 12.3399 17.5 12.3399C20.3497 12.3399 22.6601 14.65 22.6601 17.5C22.6601 20.35 20.3497 22.6601 17.5 22.6601ZM22.8641 13.3418C22.1981 13.3418 21.6582 12.8019 21.6582 12.1359C21.6582 11.4699 22.1981 10.93 22.8641 10.93C23.53 10.93 24.07 11.4699 24.07 12.1359C24.0697 12.8019 23.53 13.3418 22.8641 13.3418Z" fill="#454545"/>
<path d="M17.5 0C7.83649 0 0 7.83649 0 17.5C0 27.1635 7.83649 35 17.5 35C27.1635 35 35 27.1635 35 17.5C35 7.83649 27.1635 0 17.5 0ZM27.4882 21.643C27.4396 22.7127 27.2695 23.443 27.0212 24.0823C26.4991 25.4321 25.4321 26.4991 24.0823 27.0212C23.4433 27.2695 22.7127 27.4393 21.6432 27.4882C20.5716 27.5371 20.2293 27.5488 17.5003 27.5488C14.771 27.5488 14.4289 27.5371 13.357 27.4882C12.2876 27.4393 11.557 27.2695 10.918 27.0212C10.2472 26.7688 9.64001 26.3734 9.13799 25.862C8.6269 25.3603 8.23143 24.7528 7.97909 24.0823C7.73075 23.4433 7.56065 22.7127 7.51205 21.6432C7.46265 20.5714 7.45117 20.229 7.45117 17.5C7.45117 14.771 7.46265 14.4286 7.51179 13.357C7.56039 12.2873 7.73022 11.557 7.97855 10.9177C8.2309 10.2472 8.62663 9.63974 9.13799 9.13799C9.63974 8.62663 10.2472 8.23116 10.9177 7.97882C11.557 7.73048 12.2873 7.56065 13.357 7.51179C14.4286 7.46292 14.771 7.45117 17.5 7.45117C20.229 7.45117 20.5714 7.46292 21.643 7.51205C22.7127 7.56065 23.443 7.73048 24.0823 7.97855C24.7528 8.2309 25.3603 8.62663 25.8623 9.13799C26.3734 9.64001 26.7691 10.2472 27.0212 10.9177C27.2698 11.557 27.4396 12.2873 27.4885 13.357C27.5373 14.4286 27.5488 14.771 27.5488 17.5C27.5488 20.229 27.5373 20.5714 27.4882 21.643Z" fill="#454545"/>
</svg>
