<svg width="35" height="35" viewBox="0 0 35 35" fill="none" xmlns="http://www.w3.org/2000/svg">
<circle cx="18" cy="17" r="16" fill="white"/>
<path d="M17.5 35C27.1673 35 35 27.1673 35 17.5C35 7.83271 27.1673 0 17.5 0C7.83271 0 0 7.83271 0 17.5C0 27.1673 7.83271 35 17.5 35ZM8.00771 17.1208L24.8806 10.6152C25.6638 10.3323 26.3477 10.8063 26.094 11.9904L26.0954 11.989L23.2225 25.5238C23.0096 26.4833 22.4394 26.7167 21.6417 26.2646L17.2667 23.0402L15.1565 25.0731C14.9231 25.3065 14.7263 25.5033 14.2742 25.5033L14.5848 21.051L22.6931 13.7258C23.046 13.4152 22.6144 13.2402 22.1492 13.5494L12.129 19.8581L7.80938 18.5106C6.87167 18.2131 6.85125 17.5729 8.00771 17.1208Z" fill="#454545"/>
</svg>
