<svg width="35" height="35" viewBox="0 0 35 35" fill="none" xmlns="http://www.w3.org/2000/svg">
<circle cx="18" cy="17" r="16" fill="white"/>
<path d="M15.3202 20.7786L21.0128 17.5L15.3202 14.2214V20.7786Z" fill="#454545"/>
<path d="M17.5 0C7.83649 0 0 7.83649 0 17.5C0 27.1635 7.83649 35 17.5 35C27.1635 35 35 27.1635 35 17.5C35 7.83649 27.1635 0 17.5 0ZM28.4348 17.5179C28.4348 17.5179 28.4348 21.067 27.9846 22.7784C27.7323 23.7151 26.9937 24.4537 26.0569 24.7058C24.3456 25.1562 17.5 25.1562 17.5 25.1562C17.5 25.1562 10.6723 25.1562 8.94306 24.6879C8.00632 24.4358 7.26772 23.6969 7.01538 22.7602C6.5649 21.067 6.5649 17.5 6.5649 17.5C6.5649 17.5 6.5649 13.9512 7.01538 12.2398C7.26746 11.3031 8.02422 10.5463 8.94306 10.2942C10.6544 9.84375 17.5 9.84375 17.5 9.84375C17.5 9.84375 24.3456 9.84375 26.0569 10.3121C26.9937 10.5642 27.7323 11.3031 27.9846 12.2398C28.453 13.9512 28.4348 17.5179 28.4348 17.5179Z" fill="#454545"/>
</svg>
