<svg width="23" height="23" viewBox="0 0 23 23" fill="none" xmlns="http://www.w3.org/2000/svg">
<g id="Icon_close_outline">
<g id="Vector">
<path fill-rule="evenodd" clip-rule="evenodd" d="M11.5 6.1194C11.1318 6.1194 10.8333 6.41788 10.8333 6.78607L10.8333 16.2142C10.8333 16.5824 11.1318 16.8808 11.5 16.8808C11.8682 16.8808 12.1667 16.5824 12.1667 16.2142L12.1667 6.78607C12.1667 6.41788 11.8682 6.1194 11.5 6.1194Z" fill="black"/>
<path fill-rule="evenodd" clip-rule="evenodd" d="M16.8807 11.5001C16.8807 11.8683 16.5822 12.1668 16.214 12.1668L6.78595 12.1668C6.41776 12.1668 6.11929 11.8683 6.11929 11.5001C6.11929 11.1319 6.41777 10.8334 6.78595 10.8334L16.214 10.8334C16.5822 10.8334 16.8807 11.1319 16.8807 11.5001Z" fill="black"/>
</g>
</g>
</svg>
