<svg width="466" height="212" viewBox="0 0 466 212" fill="none" xmlns="http://www.w3.org/2000/svg">
<path d="M451.352 0.494423C449.802 1.20154 447.272 3.86681 443.982 8.24547C438.651 15.3438 433.157 25.0802 427.528 37.3459C425.488 41.7789 424.835 42.758 419.885 49.0676C414.473 56.0028 409.931 61.8229 406.178 66.6639C392.199 84.7496 388.636 89.0467 382.952 94.6492C378.9 98.6471 374.521 101.231 372.618 100.741C369.272 99.8982 369.599 92.6367 373.434 82.6827C374.875 78.9296 376.235 76.2099 377.649 74.1973C379.226 71.94 379.988 71.7224 381.565 73.1095C382.49 73.9254 383.252 74.007 383.85 73.4086C384.611 72.6471 384.557 71.8584 383.687 70.5802C382.136 68.3501 379.39 67.6157 376.86 68.758C373.352 70.3626 369.137 76.6178 366.662 83.9881C365.193 88.2852 364.758 91.1137 364.921 95.0028C365.057 98.4839 365.465 99.8438 366.934 102.02C368.321 104.032 371.285 105.202 373.651 104.63C381.13 102.863 390.867 92.8542 414.065 63.0467C418.825 56.9003 419.45 56.1932 419.613 56.4923C419.695 56.6283 419.532 57.4442 419.206 58.3145C415.697 68.486 413.902 79.2559 414.582 85.8647C415.48 94.1597 417.873 100.116 422.252 104.794C429.268 112.3 439.222 112.844 448.741 106.262C453.636 102.89 457.417 97.4777 463.237 85.6199C464.814 82.3835 465.875 79.8814 465.957 79.1743C466.065 78.1408 466.011 78.0049 465.358 77.7057C464.325 77.2162 463.563 77.6785 458.804 81.5948C445.287 92.7183 441.806 95.0844 438.352 95.3563C436.938 95.4651 436.856 95.4379 435.823 94.3501C435.061 93.5342 434.572 92.6639 434.136 91.2496C433.565 89.509 433.511 88.7475 433.511 84.1241C433.511 75.8835 435.17 66.9358 440.31 47.4086C444.036 33.2936 448.85 19.4233 451.977 13.8208C452.44 13.0049 453.745 10.8019 454.915 8.95258C457.335 5.09065 457.689 3.86681 456.873 2.20781C455.839 0.11367 453.691 -0.566246 451.352 0.494423Z" fill="#1D1D1D"/>
<path d="M141.962 1.4735C130.92 3.13249 119.661 10.8019 110.822 22.6597C104.648 30.9819 98.7467 43.2747 96.0542 53.5279C91.458 70.9337 92.7906 89.4547 99.481 100.986C102.581 106.344 106.525 109.988 111.991 112.545C115.609 114.231 117.186 114.557 121.701 114.557C125.427 114.557 125.78 114.503 128.228 113.66C129.642 113.17 131.573 112.354 132.498 111.837C134.429 110.777 137.611 108.275 139.243 106.589C139.814 105.99 140.439 105.473 140.63 105.473C140.793 105.473 141.282 105.963 141.717 106.589C143.186 108.737 145.634 109.934 148.408 109.934C151.236 109.907 153.249 108.791 156.512 105.501C159.259 102.754 161.707 99.5718 171.987 85.5655C178.025 77.2977 178.705 76.4547 178.977 76.6994C179.031 76.781 178.65 78.576 178.107 80.7517C176.42 87.6053 174.408 97.1785 173.374 103.162C173.184 104.195 172.912 105.419 172.749 105.881C172.586 106.344 170.111 109.091 167.119 112.137C154.119 125.409 149.142 131.773 144.6 140.911C138.454 153.258 135.789 165.415 136.196 179.176C136.686 195.685 140.983 207.135 147.945 210.589C149.387 211.296 149.876 211.377 152.025 211.404C154.119 211.404 154.69 211.296 156.023 210.67C159.014 209.283 161.517 206.291 163.828 201.45C167.69 193.319 169.948 182.467 173.918 152.66C174.081 151.463 174.326 149.695 174.462 148.716C174.598 147.737 174.843 145.969 175.006 144.773C176.855 130.875 179.494 113.986 181.968 100.034C182.186 98.7559 182.485 97.0969 182.621 96.3626C185.667 79.2287 190.073 61.7413 192.548 56.7915C193.037 55.8124 194.316 53.6095 195.376 51.8961C198.749 46.4568 200.326 42.7852 199.945 41.235C199.456 39.304 197.471 38.189 195.621 38.8145C193.146 39.6304 189.366 45.7768 186.048 54.3438C183.328 61.3061 183.192 61.5237 175.795 70.3898C167.581 80.235 154.146 94.8668 153.303 94.8668C152.841 94.8668 152.895 94.0781 153.548 90.3521C154.799 83.0906 157.084 72.5655 159.232 64.4065C161.027 57.553 161.734 54.0446 161.598 52.712C161.163 47.8166 156.186 46.1576 152.814 49.7747C149.55 53.2015 145.607 62.394 142.153 74.6053C140.303 81.0509 139.922 82.9003 139.107 88.5572C138.535 92.7454 138.372 93.0718 135.054 96.3898C130.458 101.013 126.705 102.917 122.68 102.699C115.309 102.319 110.196 94.4588 108.51 80.9965C107.341 71.4777 108.782 58.4505 112.155 48.1973C115.826 36.9651 121.51 27.2559 128.473 20.348C134.048 14.7999 139.977 11.5907 144.682 11.5363C146.232 11.5363 146.803 11.645 147.619 12.1618C149.523 13.3312 150.529 16.0237 150.529 19.8856C150.529 27.7999 144.655 40.8542 138.127 47.4086C134.266 51.2978 133.205 50.8082 132.035 44.6346C130.757 38.0258 130.703 37.8082 129.832 37.0739C128.065 35.6053 126.596 36.5572 126.052 39.5488C125.535 42.4044 125.807 48.8229 126.542 51.0802C127.766 54.8333 130.431 57.3626 133.558 57.7706C139.977 58.5593 147.619 50.9714 154.065 37.4003C159.694 25.5425 160.973 15.8877 157.736 9.30614C155.37 4.43793 151.019 1.69107 145.307 1.4735C143.92 1.39191 142.425 1.4191 141.962 1.4735ZM172.014 110.831C172.014 110.967 171.634 113.551 171.199 116.597C170.736 119.67 169.812 126.632 169.159 132.099C168.479 137.566 167.826 143.059 167.663 144.283C167.255 147.574 166.874 150.919 166.031 158.643C163.257 183.936 160.891 194.135 156.404 200.199C154.418 202.892 153.194 203.49 151.916 202.402C149.496 200.363 147.184 193.699 145.715 184.48C145.063 180.264 145.063 168.624 145.715 164.354C147.184 155.107 149.904 146.84 154.201 138.517C156.431 134.248 158.933 130.141 166.412 118.528C168.778 114.856 170.899 111.593 171.09 111.239C171.471 110.668 172.014 110.423 172.014 110.831Z" fill="#1D1D1D"/>
<path d="M50.2825 9.85004C48.841 10.3124 44.8703 12.4065 42.7218 13.8751C34.1276 19.668 21.726 33.0488 14.1925 44.7433C7.96447 54.3166 3.01468 64.2705 1.08372 71.0425C-0.983227 78.2768 -0.0585415 84.3145 3.55861 87.4965C4.94564 88.7203 6.19669 89.2099 8.01886 89.2099C10.521 89.2371 12.4519 88.122 14.2197 85.6471C16.0419 83.145 16.885 81.0781 18.0544 76.2371C18.7887 73.2998 18.7887 73.2454 18.2448 73.1638C17.6737 73.055 17.4833 73.2454 12.8327 78.3856C11.6632 79.6638 10.521 80.7245 10.3306 80.7245C9.3515 80.7245 9.86823 76.4546 11.4184 71.6136C14.1381 63.2643 20.9645 50.9714 28.1716 41.4253C33.7197 34.0823 42.1235 25.0802 47.1276 21.1095C50.0649 18.7977 52.0502 17.6827 52.3766 18.1994C53.1381 19.3961 52.4038 26.8751 50.1465 40.7454C48.4331 51.4065 47.726 55.7036 46.9101 61.0069C45.0607 72.8647 43.021 85.6471 42.5586 88.3396C42.2322 90.053 41.7427 92.7998 41.4707 94.4588C40.5732 99.599 38.4791 110.26 37.4184 114.992C36.8473 117.549 34.3996 131.011 34.0189 133.758C32.931 141.4 32.7406 143.848 33.1758 145.317C34.2636 149.097 38.6423 149.858 41.0628 146.704C43.1297 144.011 47.5356 129.678 50.7176 115.4C51.9958 109.635 53.682 104.712 55.8306 100.442C56.4833 99.0822 61.0523 91.3312 65.9477 83.1722C70.8431 75.0132 75.0314 67.9693 75.2762 67.5341C75.4937 67.0718 75.9561 66.4191 76.2824 66.0383L76.8808 65.3584L76.7176 66.0383C76.4184 67.3166 75.2218 74.0613 74.7866 76.781C73.8347 82.9274 73.7804 83.2538 72.9917 89.6994C72.5021 93.4797 72.5293 104.086 72.9917 106.289C73.8347 110.206 75.7929 113.089 78.3766 114.231C81.0691 115.427 84.4958 115.047 84.8766 113.551C84.9582 113.17 84.7678 111.62 84.4686 110.07C83.2992 104.304 83.7887 99.2182 88.5481 68.35C88.6841 67.4525 88.9017 66.0927 89.0377 65.3584C90.6423 56.0571 93.1716 40.4463 93.3347 38.7057C93.6339 35.3333 92.1925 33.1304 89.6632 33.1304C87.3515 33.1304 86.8891 33.6471 84.4414 38.7601C80.5795 46.8103 77.4791 52.6848 73.7532 58.9672C69.1569 66.7182 68.1507 68.3228 66.3829 70.5258C63.3096 74.3605 63.3096 74.3605 58.4686 83.5802C57.5984 85.212 56.7281 86.8166 56.5377 87.1157C56.1841 87.6053 56.1569 87.5781 56.1569 86.7078C56.1569 86.191 56.2929 84.8856 56.4561 83.8521C57.2176 78.6304 59.1214 63.509 59.6925 58.1513C61.4059 42.2412 62.3034 29.1325 62.0314 23.0676C61.7322 15.5613 60.046 11.6722 56.4289 10.0404C54.9875 9.3877 52.0502 9.30611 50.2825 9.85004Z" fill="#1D1D1D"/>
<path d="M362.989 22.3877C362.337 22.5781 361.303 23.0948 360.705 23.5028C358.176 25.2706 352.845 32.5865 349.255 39.2769C346.236 44.8522 345.611 45.94 344.577 47.2455C343.979 47.9798 343.598 48.2789 343.517 48.0614C343.462 47.8438 343.272 46.9463 343.081 46.0488C342.646 43.9547 342.021 42.758 340.688 41.3982C338.512 39.2497 335.711 38.4066 331.387 38.6513C323.908 39.1137 315.259 44.3626 308.732 52.44C304.761 57.3626 300.709 64.4882 299.077 69.4379C297.527 74.143 297.119 76.4275 297.119 80.3982C297.119 85.7287 298.316 89.2643 301.09 92.1471C303.238 94.4045 306.094 95.6555 309.113 95.6827C310.962 95.6827 314.389 94.7308 316.402 93.6158C321.134 91.0321 326.872 85.8919 332.529 79.1743C334.379 76.9986 336.146 74.8773 336.5 74.4965L337.125 73.7894L337.017 75.0133C336.935 75.6932 336.554 78.1409 336.119 80.4526C335.466 84.1241 335.385 85.4024 335.358 90.3794C335.33 97.3689 335.82 99.8982 337.914 103.379C340.307 107.35 345.04 109.009 348.494 107.078C350.397 106.017 350.724 104.63 350.125 100.007C349.255 93.235 352.845 76.8354 359.508 57.1994C363.588 45.1513 365.356 40.6639 368.021 35.5781C370.985 29.9484 370.904 30.166 370.904 28.1806C370.904 25.2978 369.517 23.3668 366.715 22.3877C365.356 21.8982 364.54 21.8982 362.989 22.3877ZM336.826 46.3752C337.261 46.6199 337.751 47.1367 337.914 47.5174C338.784 49.4212 338.458 53.8543 337.234 56.2204C335.847 58.94 324.588 72.2664 319.393 77.3522C315.042 81.5676 311.343 84.2057 310.337 83.825C309.983 83.689 309.902 83.1994 309.902 81.4317C309.902 72.4568 319.121 55.5133 327.389 49.2852C331.251 46.3752 334.922 45.2329 336.826 46.3752Z" fill="#1D1D1D"/>
<path d="M266.794 39.3857C264.02 40.5279 259.832 49.8292 256.106 63.1827C253.114 73.8166 248.844 92.1472 247.457 100.279C246.533 105.637 246.451 110.07 247.24 111.593C248.11 113.279 249.334 113.986 251.183 113.85C254.61 113.605 256.269 111.103 258.744 102.264C259.886 98.2664 260.267 96.7434 261.355 91.9024C261.736 90.189 262.252 88.5572 262.497 88.2852C262.715 88.0133 263.857 87.2246 264.999 86.5446C266.141 85.8375 269.269 83.8794 271.962 82.2204C277.836 78.5488 278.081 78.4128 278.081 78.848C278.081 79.0112 277.782 80.3982 277.428 81.9212C275.905 88.2036 275.225 92.1743 274.817 97.0425C274.137 104.766 275.823 109.363 280.066 111.348C283.466 112.925 284.2 112.055 284.499 106.017C284.744 100.959 285.696 95.5195 287.736 87.6597C289.313 81.5948 290.401 77.4066 291.326 73.9254C291.842 71.9128 292.522 69.3292 292.794 68.1869C293.066 67.0446 293.8 64.7873 294.426 63.1555C295.351 60.735 295.568 59.8103 295.623 57.9882C295.65 56.7643 295.759 55.5405 295.867 55.2685C296.357 53.7455 298.206 44.0091 298.206 43.0028C298.206 40.4191 295.677 39.576 293.583 41.4526C290.51 44.2267 285.832 53.8815 282.296 64.7329L280.474 70.3898L278.244 71.7497C275.416 73.5174 264.564 79.0112 264.346 78.7936C264.265 78.6848 264.945 75.258 265.842 71.1785C266.767 67.0718 267.61 63.2371 267.746 62.6388C270.194 50.7267 271.554 43.438 271.554 42.3229C271.554 41.1262 271.445 40.8543 270.629 40.0384C269.84 39.2497 269.514 39.1137 268.535 39.1409C267.882 39.1409 267.093 39.2497 266.794 39.3857Z" fill="#1D1D1D"/>
<path d="M215.857 40.5007C212.811 42.0237 207.752 51.8145 203.237 64.9505C193.447 93.3982 186.783 124.266 184.363 152.197C183.873 157.909 183.819 171.861 184.254 177.762C184.608 182.331 185.695 189.865 186.321 192.013C187.327 195.331 188.497 196.582 190.591 196.582C192.059 196.582 193.311 195.685 193.746 194.325C194.154 193.02 195.513 185.513 196.465 179.176C196.928 176.103 197.444 172.84 197.58 171.915C197.744 170.963 197.961 169.44 198.124 168.515C198.26 167.563 198.559 165.632 198.804 164.218C199.022 162.804 199.566 158.997 200.028 155.787C200.49 152.578 201.034 148.771 201.252 147.356C201.47 145.942 202.557 138.653 203.7 131.174C204.815 123.695 205.821 117.304 205.875 116.951C206.039 116.271 206.61 116.162 207.072 116.733C207.67 117.44 209.764 118.229 211.505 118.419C218.44 119.099 229.944 111.402 236.336 101.802C240.741 95.166 244.141 85.5928 244.93 77.5154C245.229 74.4421 245.229 73.5446 244.848 71.1241C244.168 66.5551 242.808 64.2162 240.116 62.8836C238.783 62.2309 238.403 62.1765 236.39 62.2852C234.541 62.394 233.779 62.5844 232.039 63.4003C225.593 66.3919 218.712 73.7894 213.082 83.7978C212.43 84.94 211.777 85.7831 211.668 85.6744C211.423 85.4296 213.898 72.1848 215.53 65.0865C215.666 64.4882 216.482 61.007 217.325 57.3354C218.141 53.6639 219.229 49.394 219.691 47.8166C221.078 43.0572 220.806 41.235 218.603 40.3103C217.434 39.8208 217.244 39.8208 215.857 40.5007ZM239.191 65.3041C240.959 66.4735 241.231 67.3438 241.204 71.4777C241.204 76.5091 240.17 80.1806 237.152 86.1639C234.024 92.2831 230.842 96.553 225.892 101.204C221.16 105.609 214.334 110.097 212.267 110.097C211.369 110.097 211.124 109.553 210.662 106.289C210.499 105.174 210.227 103.243 210.064 101.992L209.71 99.7622L210.635 97.6409C213.409 91.2769 218.685 81.7852 222.438 76.5091C226.708 70.4442 231.576 66.0112 235.112 64.9233C236.526 64.5154 238.267 64.6514 239.191 65.3041Z" fill="#1D1D1D"/>
</svg>
