<svg width="8" height="9" viewBox="0 0 8 9" fill="none" xmlns="http://www.w3.org/2000/svg">
<path fill-rule="evenodd" clip-rule="evenodd" d="M0.195262 0.695384C-0.0650875 0.955734 -0.0650875 1.37784 0.195262 1.63819L6.86193 8.30486C7.12228 8.56521 7.54439 8.56521 7.80474 8.30486C8.06509 8.04451 8.06509 7.6224 7.80474 7.36205L1.13807 0.695384C0.877722 0.435035 0.455612 0.435035 0.195262 0.695384Z" fill="black"/>
<path fill-rule="evenodd" clip-rule="evenodd" d="M7.80474 0.695384C8.06509 0.955734 8.06509 1.37784 7.80474 1.63819L1.13807 8.30486C0.877722 8.56521 0.455612 8.56521 0.195262 8.30486C-0.0650872 8.04451 -0.0650872 7.6224 0.195262 7.36205L6.86193 0.695384C7.12228 0.435035 7.54439 0.435035 7.80474 0.695384Z" fill="black"/>
</svg>
